<svg xmlns="http://www.w3.org/2000/svg" viewBox="0 0 64 64" data-icon-canvas="full" data-icon-kind="talent" data-icon-key="bear-talent-regrowth-of-the-pack">
  <title>druid_bear_t_regrowth_of_the_pack_pic</title>
  <defs>
    <linearGradient id="bg" x1="8" y1="4" x2="57" y2="62" gradientUnits="userSpaceOnUse">
      <stop stop-color="#23664d"/>
      <stop offset="0.58" stop-color="#102b24"/>
      <stop offset="1" stop-color="#081012"/>
    </linearGradient>
    <radialGradient id="glow" cx="0" cy="0" r="1" gradientTransform="translate(23 18) rotate(48) scale(38)">
      <stop stop-color="#57d49a" stop-opacity=".42"/>
      <stop offset="1" stop-color="#57d49a" stop-opacity="0"/>
    </radialGradient>
  </defs>
  <path fill="url(#bg)" d="M0 0h64v64H0z"/>
  <path fill="url(#glow)" d="M0 0h64v64H0z"/>
  <path d="M4 4h56v56H4z" fill="none" stroke="#c8f5a5" stroke-opacity=".24"/>
  <g fill="none" stroke="#57d49a" stroke-opacity=".4" stroke-width="1.2"><ellipse cx="32" cy="32" rx="27" ry="29"/></g>
  <g fill="#57d49a" fill-opacity=".13" stroke="#c8f5a5" stroke-width="3" stroke-linecap="round" stroke-linejoin="round"><path d="M32 50S19 42 19 32c0-8 10-10 13-3 3-7 13-5 13 3 0 10-13 18-13 18Z"/><circle cx="18" cy="20" r="3"/><circle cx="27" cy="15" r="3"/><circle cx="37" cy="15" r="3"/><circle cx="46" cy="20" r="3"/></g>
  <path d="M8 57h48" stroke="#57d49a" stroke-opacity=".36" stroke-width="2"/>
</svg>
