<svg xmlns="http://www.w3.org/2000/svg" viewBox="0 0 64 64" data-icon-canvas="full" data-icon-kind="talent" data-icon-key="bear-talent-ursine-threat">
  <title>druid_bear_t_ursine_threat_pic</title>
  <defs>
    <linearGradient id="bg" x1="8" y1="4" x2="57" y2="62" gradientUnits="userSpaceOnUse">
      <stop stop-color="#31505a"/>
      <stop offset="0.58" stop-color="#172329"/>
      <stop offset="1" stop-color="#081012"/>
    </linearGradient>
    <radialGradient id="glow" cx="0" cy="0" r="1" gradientTransform="translate(23 18) rotate(48) scale(38)">
      <stop stop-color="#7bd5a5" stop-opacity=".42"/>
      <stop offset="1" stop-color="#7bd5a5" stop-opacity="0"/>
    </radialGradient>
  </defs>
  <path fill="url(#bg)" d="M0 0h64v64H0z"/>
  <path fill="url(#glow)" d="M0 0h64v64H0z"/>
  <path d="M4 4h56v56H4z" fill="none" stroke="#e3f2d1" stroke-opacity=".24"/>
  <g fill="none" stroke="#7bd5a5" stroke-opacity=".4" stroke-width="1.2"><ellipse cx="32" cy="32" rx="27" ry="29"/></g>
  <g fill="#7bd5a5" fill-opacity=".13" stroke="#e3f2d1" stroke-width="3" stroke-linecap="round" stroke-linejoin="round"><path d="M21 40c0-8 5-14 11-14s11 6 11 14c0 7-5 11-11 11s-11-4-11-11Z"/><circle cx="20" cy="23" r="4"/><circle cx="28" cy="17" r="4"/><circle cx="37" cy="17" r="4"/><circle cx="45" cy="23" r="4"/><path d="M32 9V5m-18 9-3-3m39 3 3-3"/></g>
  <path d="M8 57h48" stroke="#7bd5a5" stroke-opacity=".36" stroke-width="2"/>
</svg>
