<svg xmlns="http://www.w3.org/2000/svg" viewBox="0 0 64 64" data-icon-canvas="full" data-icon-kind="talent" data-icon-key="bear-talent-thick-hide">
  <title>druid_bear_t_thick_hide_pic</title>
  <defs>
    <linearGradient id="bg" x1="8" y1="4" x2="57" y2="62" gradientUnits="userSpaceOnUse">
      <stop stop-color="#35616a"/>
      <stop offset="0.58" stop-color="#17262a"/>
      <stop offset="1" stop-color="#081012"/>
    </linearGradient>
    <radialGradient id="glow" cx="0" cy="0" r="1" gradientTransform="translate(23 18) rotate(48) scale(38)">
      <stop stop-color="#76c9b2" stop-opacity=".42"/>
      <stop offset="1" stop-color="#76c9b2" stop-opacity="0"/>
    </radialGradient>
  </defs>
  <path fill="url(#bg)" d="M0 0h64v64H0z"/>
  <path fill="url(#glow)" d="M0 0h64v64H0z"/>
  <path d="M4 4h56v56H4z" fill="none" stroke="#d8f2df" stroke-opacity=".24"/>
  <g fill="none" stroke="#76c9b2" stroke-opacity=".4" stroke-width="1.2"><ellipse cx="32" cy="32" rx="27" ry="29"/></g>
  <g fill="#76c9b2" fill-opacity=".13" stroke="#d8f2df" stroke-width="3" stroke-linecap="round" stroke-linejoin="round"><path d="M17 22l15-9 15 9-3 22-12 8-12-8Z"/><path d="M22 25l10-6 10 6-2 15-8 6-8-6Z"/><path d="M27 28l5-3 5 3-1 9-4 3-4-3Z"/></g>
  <path d="M8 57h48" stroke="#76c9b2" stroke-opacity=".36" stroke-width="2"/>
</svg>
