<svg xmlns="http://www.w3.org/2000/svg" viewBox="0 0 64 64" role="img" aria-label="shield formation">
  <defs><linearGradient id="bg" x1="8" y1="8" x2="56" y2="56"><stop stop-color="hsl(215 76% 22%)"/><stop offset="1" stop-color="hsl(36 76% 35%)"/></linearGradient></defs>
  <rect x="3" y="3" width="58" height="58" rx="12" fill="url(#bg)"/>
  <rect x="3" y="3" width="58" height="58" rx="12" fill="none" stroke="rgba(255,255,255,.35)" stroke-width="3"/>
  <path fill="hsl(210 82% 66%)" stroke="rgba(8,12,24,.92)" stroke-width="4" d="M18 14c7 4 10 5 14 6-1 13-5 21-14 27-9-6-13-14-14-27 4-1 7-2 14-6Z"/>
  <path fill="hsl(42 92% 66%)" stroke="rgba(8,12,24,.92)" stroke-width="4" d="M46 14c7 4 10 5 14 6-1 13-5 21-14 27-9-6-13-14-14-27 4-1 7-2 14-6Z"/>
</svg>
