<svg xmlns="http://www.w3.org/2000/svg" viewBox="0 0 64 64" role="img" aria-label="战士T被惩罚状态图标">
  <defs>
    <linearGradient id="bg" x1="8" y1="8" x2="56" y2="56" gradientUnits="userSpaceOnUse">
      <stop stop-color="hsl(259 90% 22%)"/>
      <stop offset="1" stop-color="hsl(223 95% 35%)"/>
    </linearGradient>
  </defs>
  <rect x="3" y="3" width="58" height="58" rx="12" fill="url(#bg)"/>
  <rect x="3" y="3" width="58" height="58" rx="12" fill="none" stroke="rgba(255,255,255,.35)" stroke-width="3"/>
  <path fill="hsl(241 88% 48%)" stroke="rgba(8, 12, 24, 0.92)" stroke-width="4" stroke-linejoin="round" stroke-linecap="round" d="M35 6c5 12-6 14 5 24 3-6 9-8 12-1 3 15-7 27-20 27S10 48 13 35c2-9 10-16 14-26 1 9 3 13 8 17 3-6 1-12 0-20Z"/><path fill="hsl(283 96% 66%)" d="M32 34c5 6 9 10 5 16-2 3-7 5-11 2-6-5-2-13 6-18Z"/>
</svg>
