<svg xmlns="http://www.w3.org/2000/svg" viewBox="0 0 64 64" role="img" aria-label="沉默">
  <defs>
    <linearGradient id="bg" x1="8" y1="8" x2="56" y2="56" gradientUnits="userSpaceOnUse">
      <stop stop-color="hsl(156 90% 22%)"/>
      <stop offset="1" stop-color="hsl(120 95% 35%)"/>
    </linearGradient>
  </defs>
  <rect x="3" y="3" width="58" height="58" rx="12" fill="url(#bg)"/>
  <rect x="3" y="3" width="58" height="58" rx="12" fill="none" stroke="rgba(255,255,255,.35)" stroke-width="3"/>
  <path fill="hsl(138 88% 48%)" stroke="rgba(8, 12, 24, 0.92)" stroke-width="4" stroke-linejoin="round" stroke-linecap="round" d="M20 33V16a5 5 0 0 1 10 0v12-16a5 5 0 0 1 10 0v18-12a5 5 0 0 1 10 0v18c0 13-8 22-20 22-8 0-14-5-18-13l-5-11a5 5 0 0 1 9-5Z"/><circle cx="32" cy="43" r="7" fill="hsl(180 96% 66%)"/>
</svg>
