<svg xmlns="http://www.w3.org/2000/svg" viewBox="0 0 64 64" role="img" aria-label="party soul sensitive">
  <defs><linearGradient id="bg" x1="8" y1="8" x2="56" y2="56"><stop stop-color="hsl(247 66% 18%)"/><stop offset="1" stop-color="hsl(205 75% 28%)"/></linearGradient></defs>
  <rect x="3" y="3" width="58" height="58" rx="12" fill="url(#bg)"/>
  <rect x="3" y="3" width="58" height="58" rx="12" fill="none" stroke="rgba(255,255,255,.35)" stroke-width="3"/>
  <path fill="hsl(190 92% 72%)" stroke="rgba(8,12,24,.92)" stroke-width="3" stroke-linejoin="round" d="M24 14c7 0 12 5 12 11 0 4-2 8-6 10l-1 7H19l-1-7c-4-2-6-6-6-10 0-6 5-11 12-11Z"/>
  <path fill="hsl(210 88% 76%)" stroke="rgba(8,12,24,.92)" stroke-width="3" stroke-linejoin="round" d="M42 18c6 0 10 4 10 9 0 4-2 7-5 9l-1 6h-8l-1-6c-3-2-5-5-5-9 0-5 4-9 10-9Z"/>
  <path fill="none" stroke="hsl(281 100% 78%)" stroke-width="3.5" stroke-linecap="round" d="M18 29c4-6 9-6 12 0M36 31c3-5 8-5 11 0"/>
</svg>
