<svg xmlns="http://www.w3.org/2000/svg" viewBox="0 0 64 64" role="img" aria-label="spirit shelled">
  <defs><linearGradient id="bg" x1="8" y1="8" x2="56" y2="56"><stop stop-color="hsl(220 72% 24%)"/><stop offset="1" stop-color="hsl(174 78% 33%)"/></linearGradient></defs>
  <rect x="3" y="3" width="58" height="58" rx="12" fill="url(#bg)"/>
  <rect x="3" y="3" width="58" height="58" rx="12" fill="none" stroke="rgba(255,255,255,.35)" stroke-width="3"/>
  <path fill="hsl(184 92% 70%)" stroke="rgba(8,12,24,.92)" stroke-width="4" stroke-linejoin="round" d="M32 9c11 5 18 7 22 8-1 18-8 31-22 38C18 48 11 35 10 17c4-1 11-3 22-8Z"/>
  <path fill="none" stroke="hsl(254 100% 82%)" stroke-width="4" stroke-linecap="round" d="M22 34c7-14 18-14 20 0 1 8-7 10-10 3-3 7-11 5-10-3Z"/>
</svg>
