<svg xmlns="http://www.w3.org/2000/svg" viewBox="0 0 64 64" data-icon-canvas="full" data-icon-style="warrior-block" data-icon-kind="skill" data-icon-key="bear-skill-incarnation-ursoc">
  <title>druid_bear_t_incarnation_ursoc_pic</title>
  <defs>
    <linearGradient id="bg" x1="8" y1="4" x2="57" y2="62" gradientUnits="userSpaceOnUse">
      <stop stop-color="#31505a"/>
      <stop offset="1" stop-color="#172329"/>
    </linearGradient>
    <radialGradient id="glow" cx="0" cy="0" r="1" gradientTransform="translate(23 18) rotate(48) scale(38)">
      <stop stop-color="#e3f2d1" stop-opacity=".3"/>
      <stop offset="1" stop-color="#7bd5a5" stop-opacity="0"/>
    </radialGradient>
  </defs>
  <rect x="3" y="3" width="58" height="58" rx="12" fill="url(#bg)"/>
  <rect x="3" y="3" width="58" height="58" rx="12" fill="url(#glow)"/>
  <g data-icon-layer="core" fill="#7bd5a5" stroke="#091116" stroke-width="4" stroke-linejoin="round"><path d="m32 7 21 12v26L32 57 11 45V19Z"/></g>
  <g data-icon-layer="symbol-outline" transform="translate(7 7) scale(.78)" fill="#e3f2d1" stroke="#091116" stroke-width="5" stroke-linecap="round" stroke-linejoin="round"><path d="M20 45V27l7-10 5 6 5-6 7 10v18l-12 8Z"/><path d="M20 29l-7-8 11 2m20 6 7-8-11 2M27 35h2m6 0h2m-8 8h6"/></g>
  <g data-icon-layer="highlight" transform="translate(7 7) scale(.78)" fill="#e3f2d1" stroke="#e3f2d1" stroke-width="1.8" stroke-linecap="round" stroke-linejoin="round"><path d="M20 45V27l7-10 5 6 5-6 7 10v18l-12 8Z"/><path d="M20 29l-7-8 11 2m20 6 7-8-11 2M27 35h2m6 0h2m-8 8h6"/></g>
</svg>
