<svg xmlns="http://www.w3.org/2000/svg" viewBox="0 0 64 64" data-icon-canvas="full" data-icon-style="warrior-block" data-icon-kind="skill" data-icon-key="bear-skill-mangle">
  <title>druid_bear_t_mangle_pic</title>
  <defs>
    <linearGradient id="bg" x1="8" y1="4" x2="57" y2="62" gradientUnits="userSpaceOnUse">
      <stop stop-color="#873725"/>
      <stop offset="1" stop-color="#351713"/>
    </linearGradient>
    <radialGradient id="glow" cx="0" cy="0" r="1" gradientTransform="translate(23 18) rotate(48) scale(38)">
      <stop stop-color="#ffd083" stop-opacity=".3"/>
      <stop offset="1" stop-color="#f06a45" stop-opacity="0"/>
    </radialGradient>
  </defs>
  <rect x="3" y="3" width="58" height="58" rx="12" fill="url(#bg)"/>
  <rect x="3" y="3" width="58" height="58" rx="12" fill="url(#glow)"/>
  <g data-icon-layer="core" fill="#f06a45" stroke="#091116" stroke-width="4" stroke-linejoin="round"><path d="M32 6 57 31 32 58 7 31Z"/></g>
  <g data-icon-layer="symbol-outline" transform="translate(7 7) scale(.78)" fill="#ffd083" stroke="#091116" stroke-width="5" stroke-linecap="round" stroke-linejoin="round"><path d="M18 48L42 16m-14 34 22-29M16 37l18-23"/><path d="M18 51l-5-9 8 1m9 9-6-9 8 1m10-12 8 1-5-8"/></g>
  <g data-icon-layer="highlight" transform="translate(7 7) scale(.78)" fill="#ffd083" stroke="#ffd083" stroke-width="1.8" stroke-linecap="round" stroke-linejoin="round"><path d="M18 48L42 16m-14 34 22-29M16 37l18-23"/><path d="M18 51l-5-9 8 1m9 9-6-9 8 1m10-12 8 1-5-8"/></g>
</svg>
