<svg xmlns="http://www.w3.org/2000/svg" viewBox="0 0 64 64" data-icon-canvas="full" data-icon-style="warrior-block" data-icon-kind="skill" data-icon-key="bear-skill-survival-instincts">
  <title>druid_bear_t_survival_instincts_pic</title>
  <defs>
    <linearGradient id="bg" x1="8" y1="4" x2="57" y2="62" gradientUnits="userSpaceOnUse">
      <stop stop-color="#35616a"/>
      <stop offset="1" stop-color="#17262a"/>
    </linearGradient>
    <radialGradient id="glow" cx="0" cy="0" r="1" gradientTransform="translate(23 18) rotate(48) scale(38)">
      <stop stop-color="#d8f2df" stop-opacity=".3"/>
      <stop offset="1" stop-color="#76c9b2" stop-opacity="0"/>
    </radialGradient>
  </defs>
  <rect x="3" y="3" width="58" height="58" rx="12" fill="url(#bg)"/>
  <rect x="3" y="3" width="58" height="58" rx="12" fill="url(#glow)"/>
  <g data-icon-layer="core" fill="#76c9b2" fill-opacity="1" stroke="#091116" stroke-width="4" stroke-linejoin="round"><path d="M32 7 53 16v16c0 13-8 21-21 27C19 53 11 45 11 32V16Z"/></g>
  <g data-icon-layer="symbol-outline" transform="translate(7 7) scale(.78)" fill="#d8f2df" stroke="#091116" stroke-width="5" stroke-linecap="round" stroke-linejoin="round"><path d="M32 12l17 7v11c0 11-6 18-17 23-11-5-17-12-17-23V19Z"/><path d="M24 34l6 6 11-15"/></g>
</svg>
